<?xml version="1.0" standalone="no"?><!DOCTYPE svg PUBLIC "-//W3C//DTD SVG 1.1//EN" "http://www.w3.org/Graphics/SVG/1.1/DTD/svg11.dtd"><svg t="1552032219040" class="icon" style="" viewBox="0 0 1024 1024" version="1.1" xmlns="http://www.w3.org/2000/svg" p-id="832" xmlns:xlink="http://www.w3.org/1999/xlink" width="200" height="200"><defs><style type="text/css"></style></defs><path d="M644.4928 576H123.52C97.7152 576 76.8 555.9424 76.8 531.2S97.7152 486.4 123.5072 486.4H644.48C670.2848 486.4 691.2 506.4576 691.2 531.2S670.2848 576 644.4928 576M160 320H537.6c-11.4816-11.3408-12.8-25.6-12.8-38.4 0-60.6592 52.7232-115.2 115.2-115.2 72.9216 0 128 54.5536 128 115.2 0 73.4464-55.0784 128-128 128H160a44.8 44.8 0 0 1 0-89.6z m480-5.824c1.1264 0 2.2272-0.0256 3.3152-0.1024a29.0944 29.0944 0 1 0-25.9968-34.8032c-3.8912 17.92-7.9616 29.568-12.224 34.9056H640zM786.432 729.6h-36.864C724.4032 729.6 704 709.5424 704 684.8s20.4032-44.8 45.568-44.8h36.864c25.1648 0 45.568 20.0576 45.568 44.8S811.5968 729.6 786.432 729.6M863.232 473.6h-36.864C801.2032 473.6 780.8 453.5424 780.8 428.8s20.4032-44.8 45.568-44.8h36.864c25.1648 0 45.568 20.0576 45.568 44.8S888.3968 473.6 863.232 473.6" fill="#1296db" p-id="833"></path><path d="M914.432 614.4h-36.864C852.4032 614.4 832 594.3424 832 569.6s20.4032-44.8 45.568-44.8h36.864c25.1648 0 45.568 20.0576 45.568 44.8S939.5968 614.4 914.432 614.4" fill="#1296db" p-id="834"></path><path d="M546.9056 769.152a23.2704 23.2704 0 1 1 0-46.5152 23.2704 23.2704 0 0 1 0 46.528M547.3536 652.8H199.9232C174.528 652.8 153.6 672.5888 153.6 697.6c0 23.8208 20.928 43.6224 46.3232 44.8h254.784c-4.1472-0.7936-4.1472-0.3968 0 0-4.1472 49.408 38.3488 89.6 92.6464 89.6C597.504 832 640 791.808 640 742.4s-42.496-89.6-92.6464-89.6" fill="#1296db" p-id="835"></path></svg>